<?xml version="1.0" encoding="utf-8"?>
<svg viewBox="435.993 425.804 604.638 592.578" xmlns="http://www.w3.org/2000/svg">
  <g transform="matrix(0.1, 0, 0, -0.1, 0, 1500)" fill="#000000" stroke="none">
    <path d="M5463 10203 c-30 -6 -29 -21 2 -35 28 -13 31 -23 11 -35 -7 -4 -15 -14 -17 -21 -3 -10 -13 -6 -33 13 l-29 26 7 -28 c23 -92 93 -227 170 -328 40 -52 47 -98 18 -114 -10 -5 -49 -15 -86 -22 -46 -7 -64 -14 -55 -20 9 -6 -1 -9 -28 -9 -24 0 -43 4 -43 9 0 4 -37 11 -82 14 -46 3 -99 9 -118 12 -33 5 -33 5 -10 -6 14 -7 29 -11 33 -10 5 1 6 -3 3 -8 -9 -14 15 -26 49 -23 21 2 26 0 16 -6 -7 -6 -43 -10 -78 -10 -56 0 -66 2 -70 19 -6 23 -19 25 -27 4 -21 -56 74 -128 347 -259 86 -42 157 -79 157 -83 0 -3 -20 -3 -44 -1 -46 6 -76 -5 -76 -25 0 -17 73 -86 131 -125 25 -17 81 -47 125 -67 43 -21 86 -43 94 -50 8 -7 26 -15 40 -18 14 -3 45 -13 70 -22 25 -9 53 -18 62 -20 31 -7 243 -38 264 -40 11 -1 26 -5 34 -10 13 -8 81 -27 165 -45 22 -5 59 -9 83 -10 41 0 42 -1 36 -27 -4 -16 -11 -35 -15 -44 -16 -31 -107 -364 -132 -484 -31 -143 -36 -178 -82 -535 -44 -341 -93 -652 -104 -663 -12 -12 -1 -47 15 -47 29 0 12 -17 -38 -41 -29 -13 -55 -26 -58 -29 -3 -3 -23 -18 -45 -35 -22 -16 -49 -37 -59 -47 -11 -10 -25 -18 -30 -18 -15 1 78 83 142 126 28 19 52 42 52 50 0 7 -1 14 -3 14 -2 0 -46 -32 -98 -70 -238 -179 -589 -568 -589 -653 0 -15 21 -89 46 -164 44 -131 46 -142 45 -248 0 -60 -7 -141 -16 -180 -25 -118 -15 -320 18 -353 8 -7 32 -16 53 -18 35 -5 45 0 94 41 50 41 140 85 175 85 10 0 12 -8 7 -27 -3 -16 -5 -78 -5 -139 1 -110 17 -178 46 -196 22 -14 61 -8 97 13 68 42 170 90 179 84 6 -3 12 -1 15 4 4 5 25 12 49 16 23 4 47 11 52 15 6 4 37 14 70 21 33 7 72 18 87 26 15 7 38 13 51 13 13 0 27 3 31 8 4 4 15 7 24 8 10 0 44 9 77 19 33 10 71 19 85 21 14 1 43 7 65 12 86 22 167 29 340 31 193 2 336 -8 535 -40 166 -26 256 -40 305 -45 21 -2 46 -6 55 -9 8 -2 96 -11 195 -20 99 -8 218 -20 265 -26 47 -6 108 -12 135 -15 28 -3 70 -9 95 -14 74 -16 592 -50 790 -53 272 -3 430 33 430 98 0 66 -38 111 -105 125 -29 6 -30 7 -27 57 3 45 0 55 -25 81 -15 16 -40 32 -54 35 -14 4 -43 14 -65 23 l-39 16 44 18 c25 9 62 32 83 49 33 28 37 36 33 64 -18 110 -33 127 -113 127 l-56 0 32 29 c23 21 32 39 32 60 0 59 -18 66 -205 79 -161 12 -425 58 -468 83 -10 5 -22 7 -26 4 -16 -9 -400 112 -424 135 -4 3 -14 99 -22 211 -16 222 -66 725 -90 909 -9 63 -20 151 -25 195 -5 44 -14 109 -20 145 -6 36 -15 99 -20 140 -5 41 -14 95 -19 120 -28 128 -53 300 -48 322 10 39 58 94 107 121 94 53 137 73 200 96 85 31 106 45 120 84 7 18 16 41 21 52 11 26 55 207 79 325 7 30 14 141 16 245 l5 190 -40 71 c-30 53 -49 76 -76 88 -32 15 -35 21 -35 57 0 78 -21 103 -138 162 -264 134 -548 212 -983 269 -144 18 -222 22 -449 23 -260 0 -568 -9 -690 -20 -150 -15 -212 -28 -237 -51 -14 -13 -30 -24 -34 -24 -16 0 -10 20 8 27 36 14 -35 26 -177 29 -165 3 -303 17 -387 39 -75 19 -191 64 -199 76 -5 9 -12 9 -51 2z m137 -138 c119 -40 224 -56 418 -62 179 -6 184 -7 192 -29 13 -32 47 -40 73 -16 12 11 31 24 42 30 23 12 188 29 365 37 69 3 152 8 184 11 112 9 571 5 686 -6 154 -14 299 -36 450 -66 271 -55 393 -95 598 -196 79 -40 102 -56 103 -72 4 -97 -16 -300 -41 -421 -48 -236 -73 -325 -91 -325 -4 0 -29 14 -54 31 -26 17 -70 40 -98 51 -85 32 -307 79 -402 85 -87 6 -91 7 -135 46 -113 99 -295 163 -515 182 -79 6 -209 -13 -271 -41 -22 -9 -43 -16 -47 -15 -10 2 -68 -28 -90 -47 -15 -13 -48 -14 -254 -8 -274 8 -381 17 -589 51 -206 34 -292 59 -329 96 -29 27 -32 28 -53 13 -12 -8 -22 -13 -22 -10 0 3 -12 -1 -26 -8 -23 -13 -36 -9 -157 46 -208 93 -278 129 -272 137 2 5 78 11 167 14 214 8 368 43 368 83 0 9 -30 48 -66 88 -67 72 -124 147 -124 163 0 5 -8 18 -18 29 -17 19 -82 136 -82 148 0 10 13 7 90 -19z m128 -406 c-8 -5 -35 -11 -59 -14 l-44 -5 50 18 c48 18 83 18 53 1z m-411 -25 c-3 -3 -12 -4 -19 -1 -8 3 -5 6 6 6 11 1 17 -2 13 -5z m283 -4 c-32 -10 -93 -12 -87 -2 3 4 29 8 59 9 40 1 47 0 28 -7z m-100 -4 c0 -11 -19 -15 -25 -6 -3 5 1 10 9 10 9 0 16 -2 16 -4z m1362 -464 c-27 -18 -149 -186 -192 -264 -44 -79 -36 -40 9 47 61 116 180 259 200 239 3 -3 -4 -13 -17 -22z m1162 -128 c5 -14 4 -15 -9 -4 -17 14 -19 20 -6 20 5 0 12 -7 15 -16z m269 -98 c11 12 169 4 194 -9 23 -13 22 -13 -29 -26 -66 -17 -196 -75 -266 -118 -29 -18 -55 -33 -57 -33 -3 0 -4 25 -3 55 2 30 6 55 11 55 4 0 6 3 6 8 -1 4 -1 21 0 38 1 30 2 30 53 33 29 1 54 4 57 7 2 2 9 -1 16 -6 7 -5 15 -7 18 -4z m-858 -6 c3 -5 16 -10 29 -10 22 0 68 -21 171 -80 97 -56 198 -178 274 -333 51 -105 60 -141 92 -387 11 -83 9 -400 -2 -400 -6 0 -44 -122 -41 -132 1 -5 -3 -8 -8 -8 -6 0 -10 -6 -9 -12 2 -12 -22 -67 -57 -130 -29 -53 -168 -182 -226 -211 -139 -68 -314 -93 -432 -62 -125 33 -307 169 -370 277 -107 184 -127 645 -40 951 50 178 138 336 223 403 71 56 173 109 242 128 63 17 145 20 154 6z m-805 -129 c0 -6 -4 -13 -10 -16 -5 -3 -10 1 -10 9 0 9 5 16 10 16 6 0 10 -4 10 -9z m-367 -1973 c-3 -90 -6 -189 -7 -221 l-1 -57 -35 -6 c-43 -8 -168 -47 -404 -125 -98 -33 -181 -57 -184 -55 -2 3 7 10 22 15 16 7 26 18 26 31 0 12 5 18 10 15 6 -3 10 4 10 16 0 12 3 19 7 16 3 -4 15 1 26 10 11 10 17 12 13 6 -12 -22 13 -14 26 7 7 11 18 20 25 20 7 0 13 3 13 8 0 4 8 12 19 17 35 18 131 96 131 105 0 6 8 10 18 10 9 0 32 16 51 35 19 19 38 35 43 35 5 0 6 5 3 10 -3 6 -3 10 2 10 20 0 93 80 119 130 16 30 32 57 35 60 4 3 10 20 14 38 16 74 23 22 18 -130z m-243 27 c-7 -8 -20 -15 -29 -15 -13 1 -13 3 3 15 26 19 42 19 26 0z m-40 -39 c0 -2 -7 -6 -15 -10 -8 -3 -15 -1 -15 4 0 6 7 10 15 10 8 0 15 -2 15 -4z m1136 -225 c43 -6 129 -15 189 -21 356 -37 771 -142 1045 -265 155 -69 340 -136 490 -175 47 -12 114 -31 150 -41 119 -35 303 -68 463 -85 86 -10 157 -20 157 -23 0 -15 -217 -92 -315 -111 -126 -25 -155 -37 -155 -61 0 -27 77 -88 159 -126 42 -20 115 -54 163 -76 48 -22 95 -48 104 -58 15 -16 13 -19 -17 -35 -29 -14 -52 -16 -164 -10 -326 17 -555 39 -885 86 -113 16 -272 36 -355 45 -226 23 -349 40 -575 79 -288 49 -378 57 -648 58 -243 0 -257 -1 -482 -52 -256 -58 -266 -59 -299 -30 -21 17 -25 18 -46 4 -13 -8 -28 -28 -35 -44 -8 -20 -20 -30 -34 -30 -12 0 -69 -18 -126 -41 -58 -22 -114 -43 -125 -46 -11 -3 -27 -11 -35 -17 -32 -23 -62 -37 -68 -31 -13 13 -4 191 13 255 44 165 35 310 -28 480 l-34 90 201 64 c361 116 566 173 650 182 58 6 72 4 112 -17 l45 -23 30 31 c21 23 41 33 71 37 24 3 54 7 68 10 52 7 240 6 316 -3z"/>
    <path d="M5931 9800 c-12 -28 -21 -56 -20 -63 1 -6 -1 -19 -4 -27 -3 -8 -16 -61 -28 -118 -17 -82 -19 -106 -9 -117 7 -8 18 -15 26 -15 13 0 29 34 21 47 -8 14 28 208 38 208 5 0 26 -52 45 -116 20 -64 41 -124 48 -132 23 -28 39 -8 47 56 3 34 25 114 47 177 46 134 48 143 28 147 -16 4 -24 -15 -82 -177 -16 -47 -31 -86 -33 -88 -4 -5 -42 112 -63 193 -9 38 -22 70 -28 72 -6 2 -21 -19 -33 -47z"/>
    <path d="M6376 9839 c-66 -16 -146 -84 -185 -159 -42 -80 -34 -169 20 -223 28 -28 33 -29 96 -25 63 4 68 6 104 47 43 48 56 85 66 178 6 63 -12 183 -28 183 -4 0 -13 2 -21 4 -7 2 -31 0 -52 -5z m40 -75 c10 -39 -4 -182 -21 -215 -22 -41 -53 -59 -107 -59 -56 0 -68 15 -68 84 0 77 38 142 108 187 57 36 80 37 88 3z"/>
    <path d="M7318 9713 c-122 -253 -145 -308 -129 -317 22 -14 39 10 74 103 35 91 40 99 69 105 79 16 78 16 98 -96 12 -66 25 -84 49 -68 10 6 9 24 -7 86 -10 44 -16 85 -12 93 5 8 2 24 -4 35 -7 12 -19 57 -25 101 -11 70 -22 94 -41 95 -3 0 -35 -62 -72 -137z m78 -13 l11 -50 -39 0 c-21 0 -38 2 -38 4 0 12 42 96 48 96 5 0 13 -22 18 -50z"/>
    <path d="M7090 9828 c-79 -7 -120 -15 -132 -25 -22 -19 -14 -33 17 -33 23 0 24 -3 23 -53 -1 -50 -3 -54 -31 -63 -35 -11 -37 -27 -5 -34 20 -5 22 -11 20 -44 -2 -21 -10 -57 -18 -79 -11 -30 -11 -43 -3 -53 31 -37 54 3 65 112 8 72 7 72 104 76 47 3 55 6 55 23 0 18 -7 20 -70 20 -38 0 -71 3 -72 8 -2 4 -3 27 -3 51 l0 44 98 7 c53 4 102 11 109 17 18 14 4 38 -21 37 -11 -1 -73 -6 -136 -11z"/>
    <path d="M7705 9797 c-67 -31 -129 -150 -122 -236 3 -45 9 -59 35 -82 35 -32 111 -56 187 -61 47 -3 50 -2 50 22 0 24 -4 25 -70 32 -87 8 -116 19 -144 55 -19 23 -21 35 -16 73 9 58 39 115 71 137 14 9 44 17 67 17 38 1 42 -1 45 -26 2 -14 10 -32 19 -39 13 -11 18 -10 30 6 17 24 10 62 -17 89 -23 24 -96 30 -135 13z"/>
    <path d="M8017 9737 c-8 -13 -17 -50 -20 -83 -2 -32 -7 -66 -10 -74 -3 -8 -8 -54 -11 -102 l-6 -87 135 0 c105 1 146 -3 184 -17 27 -9 56 -14 64 -11 19 7 11 44 -12 56 -28 15 -164 32 -241 30 l-75 -2 3 39 c5 69 2 68 112 61 55 -3 102 -2 104 2 3 4 0 16 -7 25 -9 12 -35 18 -107 22 l-95 7 3 46 c2 25 7 49 11 53 6 7 189 -5 269 -18 38 -6 42 -5 42 13 0 12 -6 25 -12 31 -7 5 -74 13 -148 17 -74 3 -142 8 -151 11 -10 3 -23 -5 -32 -19z"/>
    <path d="M6961 8523 c-6 -16 -27 -88 -46 -162 -29 -107 -34 -136 -23 -143 17 -11 181 2 190 15 4 6 2 19 -3 29 -5 10 -21 61 -35 115 -14 54 -29 115 -35 136 -12 44 -32 48 -48 10z"/>
    <path d="M7697 8523 c-9 -10 -25 -60 -37 -112 -11 -51 -30 -120 -41 -154 -13 -38 -17 -63 -11 -69 7 -7 36 -6 84 2 94 16 118 26 118 47 0 27 -76 283 -87 294 -6 6 -15 3 -26 -8z m43 -253 c0 -5 -7 -10 -15 -10 -8 0 -15 5 -15 10 0 6 7 10 15 10 8 0 15 -4 15 -10z"/>
    <path d="M6908 8091 c-35 -36 -39 -44 -36 -83 4 -59 31 -60 39 -1 7 52 24 73 59 73 31 0 58 -26 69 -66 9 -35 36 -53 52 -37 24 24 -37 124 -86 143 -42 16 -55 12 -97 -29z"/>
    <path d="M7662 8092 c-35 -31 -43 -44 -45 -77 -2 -35 1 -40 20 -43 19 -3 24 4 34 43 24 96 121 104 121 11 0 -37 19 -62 39 -51 7 5 10 26 7 57 -10 103 -94 132 -176 60z"/>
    <path d="M7732 7875 c-68 -19 -105 -43 -97 -64 4 -9 19 -59 34 -111 48 -164 75 -196 104 -123 32 81 89 284 83 298 -7 19 -53 18 -124 0z m23 -135 c-5 -8 -11 -8 -17 -2 -6 6 -7 16 -3 22 5 8 11 8 17 2 6 -6 7 -16 3 -22z m-5 -67 c0 -26 -3 -34 -11 -26 -9 9 -3 63 7 63 2 0 4 -17 4 -37z"/>
    <path d="M6970 7841 c-71 -7 -90 -14 -90 -37 0 -28 91 -309 103 -316 15 -9 30 6 34 34 1 13 15 88 30 166 22 122 24 145 12 153 -8 5 -16 8 -19 7 -3 -1 -34 -4 -70 -7z m20 -131 c0 -16 -4 -30 -10 -30 -5 0 -10 14 -10 30 0 17 5 30 10 30 6 0 10 -13 10 -30z"/>
    <path d="M7460 7814 c-6 -14 -10 -29 -10 -33 0 -21 -42 -43 -82 -43 -61 0 -95 16 -119 57 -23 38 -29 41 -47 23 -16 -16 23 -83 63 -108 45 -28 122 -34 165 -13 37 19 86 102 76 129 -9 23 -36 16 -46 -12z"/>
    <path d="M7000 6329 c-24 -11 -46 -22 -48 -23 -2 -2 2 -49 8 -104 9 -71 9 -123 1 -183 -9 -72 -8 -86 5 -96 33 -25 44 -5 44 83 0 46 4 84 9 84 12 0 80 -47 124 -87 41 -36 60 -39 65 -7 2 13 -14 31 -54 59 -107 76 -102 68 -60 93 64 38 96 126 66 183 -15 26 -99 26 -160 -2z m127 -45 c14 -37 -62 -134 -105 -134 -14 0 -25 54 -20 100 2 27 9 36 28 41 46 13 90 10 97 -7z"/>
    <path d="M6745 6314 c-27 -13 -54 -25 -58 -27 -5 -1 -1 -26 8 -55 15 -45 16 -57 5 -77 -10 -18 -10 -28 -2 -38 6 -7 13 -58 14 -113 3 -98 3 -99 28 -99 l25 0 -4 110 -3 110 41 18 c79 35 121 145 69 181 -30 22 -64 19 -123 -10z m101 -38 c13 -33 -65 -122 -86 -99 -4 4 -11 27 -15 49 -6 39 -5 42 22 52 41 15 73 14 79 -2z"/>
    <path d="M6305 6292 c-67 -36 -97 -95 -103 -203 -4 -65 -1 -85 17 -122 25 -52 75 -82 120 -72 32 7 81 55 106 104 38 76 25 211 -25 256 -11 10 -20 24 -20 31 0 11 -30 35 -42 34 -2 0 -25 -13 -53 -28z m45 -47 c83 -43 84 -199 2 -280 -14 -14 -32 -23 -40 -20 -7 3 -18 5 -23 5 -18 0 -39 61 -39 113 0 59 19 134 44 172 19 29 19 29 56 10z"/>
    <path d="M7332 6284 c-49 -42 -72 -105 -72 -201 0 -112 40 -173 115 -173 77 0 115 86 115 260 0 130 -10 150 -74 150 -34 0 -50 -7 -84 -36z m114 -60 c10 -68 -1 -164 -24 -217 -17 -38 -26 -47 -46 -47 -14 0 -36 10 -47 21 -19 19 -21 30 -17 108 3 62 10 98 26 128 23 44 32 51 74 52 24 1 27 -3 34 -45z"/>
    <path d="M6061 6283 c-11 -12 -13 -44 -8 -164 4 -81 3 -150 -2 -153 -10 -6 -39 25 -115 119 -41 52 -56 78 -56 102 0 38 -15 50 -36 29 -8 -9 -22 -16 -30 -16 -19 0 -18 -24 2 -41 26 -21 31 -45 49 -219 17 -162 25 -190 50 -190 23 0 24 28 4 141 -21 124 -23 149 -10 149 11 0 131 -146 148 -182 21 -42 63 -36 53 7 -1 6 -5 104 -9 219 -3 125 -10 211 -16 212 -5 2 -16 -4 -24 -13z"/>
    <path d="M7600 6260 c-10 -6 -41 -235 -44 -325 -1 -56 -6 -54 91 -36 90 17 147 59 159 119 5 26 1 36 -23 60 l-29 30 23 26 c16 18 23 40 23 66 0 56 -27 72 -119 68 -39 -1 -76 -5 -81 -8z m146 -55 c8 -21 -15 -74 -37 -85 -10 -6 -34 -10 -55 -10 -36 0 -36 1 -30 31 3 17 6 40 6 50 0 29 106 42 116 14z m3 -154 c19 -12 6 -57 -22 -75 -12 -8 -46 -18 -75 -22 l-53 -7 7 44 c3 24 7 50 10 57 4 14 111 17 133 3z"/>
    <path d="M7903 6208 c-4 -7 -6 -44 -5 -83 2 -47 -4 -97 -19 -150 -11 -44 -22 -93 -22 -109 l-2 -30 95 -12 c52 -7 102 -14 110 -16 9 -2 16 6 18 19 4 28 -17 38 -105 48 -35 4 -63 10 -63 13 0 4 9 41 20 82 19 72 27 201 14 234 -7 19 -30 21 -41 4z"/>
    <path d="M8188 6116 c-10 -7 -19 -35 -23 -71 -5 -36 -14 -65 -24 -72 -12 -9 -13 -16 -5 -29 7 -11 8 -36 2 -68 -5 -36 -4 -54 5 -63 11 -11 210 -43 269 -43 21 0 28 5 28 19 0 27 -4 29 -106 41 -145 17 -144 17 -144 54 0 18 2 35 5 38 3 2 44 -2 92 -9 96 -15 113 -13 113 16 0 16 -9 21 -47 26 -27 3 -70 9 -98 13 l-50 7 4 40 c1 22 5 43 8 48 7 11 72 8 172 -9 100 -17 127 -11 105 24 -17 27 -277 59 -306 38z"/>
    <path d="M8591 6046 c-13 -16 -81 -283 -81 -318 0 -15 6 -19 27 -16 25 3 28 8 35 58 19 136 38 189 53 148 52 -151 62 -157 124 -75 62 83 99 123 106 115 4 -3 -3 -66 -15 -139 -13 -82 -18 -135 -12 -141 5 -5 20 -8 33 -6 19 2 24 10 27 38 1 19 9 101 18 182 9 81 13 152 9 158 -14 22 -35 7 -116 -84 -46 -52 -89 -95 -95 -95 -6 -1 -26 40 -45 91 -35 95 -47 109 -68 84z"/>
  </g>
</svg>